HIERARCHY
ROOT Hips
{
 OFFSET 0.000000 0.000000 0.000000
 CHANNELS 6 Xposition Yposition Zposition Yrotation Xrotation Zrotation
 JOINT Chest
 {
  OFFSET 0.000000 9.585900 0.002600
  CHANNELS 3 Yrotation Xrotation Zrotation
  JOINT Chest2
  {
   OFFSET 0.000000 9.601200 -0.005300
   CHANNELS 3 Yrotation Xrotation Zrotation
   JOINT Chest3
   {
    OFFSET 0.000000 9.561800 0.000000
    CHANNELS 3 Yrotation Xrotation Zrotation
    JOINT Chest4
    {
     OFFSET 0.000000 9.552100 0.000000
     CHANNELS 3 Yrotation Xrotation Zrotation
     JOINT Neck
     {
      OFFSET 0.000000 14.453000 0.000000
      CHANNELS 3 Yrotation Xrotation Zrotation
      JOINT Head
      {
       OFFSET 0.000000 8.936500 -0.011300
       CHANNELS 3 Yrotation Xrotation Zrotation
       End Site
       {
        OFFSET 0.000000 17.073600 -0.006000
       }
      }
     }
     JOINT RightCollar
     {
      OFFSET -2.921100 9.558500 0.000000
      CHANNELS 3 Yrotation Xrotation Zrotation
      JOINT RightShoulder
      {
       OFFSET -13.519700 0.000000 0.000000
       CHANNELS 3 Yrotation Xrotation Zrotation
       JOINT RightElbow
       {
        OFFSET 0.000000 -29.696600 0.000000
        CHANNELS 3 Yrotation Xrotation Zrotation
        JOINT RightWrist
        {
         OFFSET 0.000000 -24.004700 0.000000
         CHANNELS 3 Yrotation Xrotation Zrotation
         End Site
         {
          OFFSET 0.000000 -17.728500 0.000000
         }
        }
       }
      }
     }
     JOINT LeftCollar
     {
      OFFSET 2.921100 9.558500 0.000000
      CHANNELS 3 Yrotation Xrotation Zrotation
      JOINT LeftShoulder
      {
       OFFSET 13.519700 0.000000 0.000000
       CHANNELS 3 Yrotation Xrotation Zrotation
       JOINT LeftElbow
       {
        OFFSET 0.000000 -29.696600 0.000000
        CHANNELS 3 Yrotation Xrotation Zrotation
        JOINT LeftWrist
        {
         OFFSET 0.000000 -24.004700 0.000000
         CHANNELS 3 Yrotation Xrotation Zrotation
         End Site
         {
          OFFSET 0.000000 -17.728500 0.000000
         }
        }
       }
      }
     }
    }
   }
  }
 }
 JOINT RightHip
 {
  OFFSET -7.771700 -0.012900 -0.001300
  CHANNELS 3 Yrotation Xrotation Zrotation
  JOINT RightKnee
  {
   OFFSET 0.000000 -40.869800 0.001200
   CHANNELS 3 Yrotation Xrotation Zrotation
   JOINT RightAnkle
   {
    OFFSET 0.000000 -39.717900 0.002100
    CHANNELS 3 Yrotation Xrotation Zrotation
    JOINT RightToe
    {
     OFFSET 0.000000 -4.965400 11.033500
     CHANNELS 3 Yrotation Xrotation Zrotation
     End Site
     {
      OFFSET 0.000000 -1.423100 5.872300
     }
    }
   }
  }
 }
 JOINT LeftHip
 {
  OFFSET 7.771700 -0.012900 -0.001300
  CHANNELS 3 Yrotation Xrotation Zrotation
  JOINT LeftKnee
  {
   OFFSET 0.000000 -40.869800 0.001200
   CHANNELS 3 Yrotation Xrotation Zrotation
   JOINT LeftAnkle
   {
    OFFSET 0.000000 -39.717900 0.002100
    CHANNELS 3 Yrotation Xrotation Zrotation
    JOINT LeftToe
    {
     OFFSET 0.000000 -4.965400 11.033500
     CHANNELS 3 Yrotation Xrotation Zrotation
     End Site
     {
      OFFSET 0.000000 -1.423100 5.872300
     }
    }
   }
  }
 }
}
MOTION
Frames: 12
Frame Time: 0.008333
-57.820920 54.676744 48.955085 -177.655047 -31.016969 -10.770805 0.199491 13.398235 5.349582 0.043027 7.739692 2.101266 0.098918 9.674036 2.633517 0.035435 7.732070 2.098039 3.680253 19.647261 -1.429869 4.268427 -4.828331 -2.372556 0.706664 1.667684 -2.772082 -13.280277 -4.598675 1.020322 43.855245 -77.211345 -29.666121 9.613102 -12.337769 -22.175079 -9.480972 4.002686 -3.248580 4.632956 -2.568017 -0.013903 -83.705098 -77.736344 89.190692 14.427390 -21.421001 5.589994 -18.391192 -36.082299 3.942491 8.277871 87.140539 4.692893 0.799170 -16.881896 1.852487 -0.051174 0.454832 -0.015780 -15.124793 -47.320517 14.701353 170.767861 79.226098 165.487092 -1.704695 -16.143567 2.519553 -0.747724 -2.358713 -0.324642
-57.823893 54.687156 48.952499 -177.636252 -31.031490 -10.771058 0.184966 13.406104 5.341958 0.039189 7.739561 2.098983 0.093930 9.673822 2.630615 0.039223 7.739514 2.099048 3.665289 19.642903 -1.420962 4.255795 -4.828031 -2.356566 0.710538 1.677119 -2.769566 -13.265394 -4.601213 1.003522 44.086389 -77.215016 -29.889046 9.621472 -12.338290 -22.212804 -9.461944 4.025568 -3.244713 4.642315 -2.564750 -0.014442 -83.680303 -77.759966 89.175648 14.421553 -21.416913 5.590694 -18.393553 -36.069368 3.921156 8.385717 87.148252 4.799172 0.801437 -16.893127 1.853907 -0.053288 0.457295 -0.017410 -15.118344 -47.306024 14.683149 170.786184 79.228008 165.497517 -1.702071 -16.142086 2.527730 -0.751345 -2.360688 -0.324193
-57.826457 54.696352 48.951657 -177.622582 -31.037220 -10.768921 0.181464 13.400364 5.334869 0.028411 7.745274 2.097668 0.090356 9.673554 2.628940 0.036253 7.739385 2.097646 3.664522 19.645835 -1.413596 4.234045 -4.846252 -2.331030 0.720017 1.712246 -2.760765 -13.262941 -4.627831 0.997875 44.346993 -77.212164 -30.136217 9.622525 -12.341872 -22.257042 -9.442244 4.048121 -3.242063 4.653900 -2.556823 -0.013612 -83.756604 -77.769320 89.237881 14.393720 -21.407762 5.675200 -18.389540 -36.067695 3.903888 8.524390 87.155045 4.938726 0.799281 -16.902242 1.857150 -0.056294 0.457653 -0.019759 -15.108711 -47.299109 14.674272 170.802736 79.232058 165.504777 -1.716964 -16.148277 2.540392 -0.747359 -2.353063 -0.321528
-57.829461 54.705100 48.951238 -177.611468 -31.042623 -10.760018 0.172881 13.404564 5.320746 0.030079 7.739102 2.093395 0.084398 9.675837 2.626660 0.024173 7.734733 2.085203 3.662081 19.630570 -1.384690 4.225503 -4.863803 -2.313664 0.731801 1.749656 -2.735230 -13.226594 -4.651165 0.972172 44.505776 -77.231701 -30.312527 9.619412 -12.348310 -22.305781 -9.423197 4.067020 -3.226576 4.761030 -2.471838 0.001156 -84.087931 -77.805194 89.529595 14.390146 -21.439866 5.671748 -18.384449 -36.068550 3.884313 8.655112 87.163358 5.066369 0.794651 -16.914440 1.858353 -0.062994 0.462718 -0.017976 -15.072544 -47.293288 14.644627 170.833967 79.242771 165.539628 -1.735787 -16.165012 2.553192 -0.729733 -2.333969 -0.320767
-57.831384 54.713396 48.951880 -177.603231 -31.043688 -10.752650 0.165659 13.404867 5.309845 0.028237 7.738822 2.091722 0.076744 9.671714 2.612769 0.025858 7.739983 2.087372 3.648769 19.595271 -1.364802 4.216088 -4.893028 -2.295379 0.723424 1.793804 -2.717121 -13.145782 -4.689224 0.925879 44.526408 -77.276475 -30.387081 9.614483 -12.360630 -22.350872 -9.404520 4.087142 -3.216109 4.775264 -2.464566 0.005748 -83.891373 -77.810754 89.407706 14.419289 -21.521122 5.611923 -18.380788 -36.074660 3.869543 8.728634 87.172184 5.138726 0.797615 -16.920711 1.857716 -0.065460 0.462648 -0.017627 -15.063872 -47.298365 14.636124 170.799937 79.240084 165.490264 -1.733769 -16.148724 2.573317 -0.747093 -2.347020 -0.328560
-57.831941 54.721757 48.952894 -177.602673 -31.046079 -10.745971 0.166041 13.402634 5.305784 0.025527 7.739837 2.087297 0.071357 9.677160 2.603384 0.029485 7.738726 2.091003 3.644127 19.577218 -1.355563 4.190264 -4.956729 -2.269653 0.721954 1.809101 -2.709716 -13.128694 -4.703263 0.917063 44.646692 -77.301948 -30.517381 9.602536 -12.353186 -22.365446 -9.395366 4.119886 -3.231628 4.791908 -2.473283 0.030187 -83.878230 -77.810217 89.426972 14.432034 -21.592003 5.607298 -18.376784 -36.079210 3.862974 8.800358 87.178740 5.206630 0.804736 -16.924123 1.854955 -0.052482 0.461664 -0.017297 -15.040597 -47.296159 14.625931 170.795156 79.246309 165.484911 -1.747387 -16.157233 2.581719 -0.741532 -2.336235 -0.327532
-57.831785 54.730422 48.953660 -177.598070 -31.051806 -10.742291 0.163432 13.406441 5.297360 0.017202 7.743815 2.074951 0.071688 9.680013 2.604327 0.036876 7.736565 2.095045 3.639346 19.556628 -1.345755 4.163098 -5.022841 -2.246501 0.713256 1.827716 -2.702016 -13.107944 -4.721938 0.911356 44.742048 -77.333025 -30.628549 9.604823 -12.393770 -22.385501 -9.399722 4.139427 -3.238222 4.841524 -2.447431 0.055116 -83.988772 -77.818190 89.555871 14.447061 -21.645805 5.576823 -18.374813 -36.077958 3.856843 8.892597 87.183662 5.297578 0.798543 -16.928907 1.850401 -0.053089 0.461925 -0.014778 -15.023167 -47.289768 14.619593 170.795779 79.251601 165.483169 -1.761974 -16.162111 2.586843 -0.735559 -2.328550 -0.323984
-57.832005 54.739147 48.954164 -177.593408 -31.060787 -10.733282 0.153554 13.417701 5.280600 0.018747 7.742939 2.071126 0.068562 9.684029 2.597253 0.030662 7.741895 2.092165 3.634196 19.512251 -1.330010 4.147073 -5.069768 -2.228754 0.710460 1.842506 -2.691627 -13.096070 -4.739531 0.885247 44.713945 -77.374115 -30.597854 9.618339 -12.454472 -22.398978 -9.388133 4.143422 -3.230651 4.888192 -2.410137 0.068572 -84.150242 -77.821553 89.721552 14.450685 -21.678709 5.552140 -18.369594 -36.075659 3.835331 9.016023 87.190486 5.415833 0.840336 -16.935616 1.835142 -0.051846 0.462317 -0.011546 -15.001541 -47.278061 14.612747 170.826030 79.260886 165.504666 -1.786416 -16.169232 2.593432 -0.722047 -2.318051 -0.316225
-57.831353 54.747666 48.955120 -177.590115 -31.068135 -10.726135 0.150163 13.419022 5.268979 0.017616 7.751625 2.064876 0.065745 9.688270 2.589459 0.019021 7.747689 2.073357 3.637037 19.463135 -1.298506 4.127025 -5.111280 -2.206644 0.716851 1.842853 -2.665092 -13.086485 -4.750043 0.887985 44.759102 -77.392343 -30.647956 9.632753 -12.500058 -22.397704 -9.373345 4.147217 -3.205501 4.925544 -2.371892 0.084673 -84.283524 -77.828415 89.877631 14.457823 -21.691508 5.509433 -18.369707 -36.072895 3.828663 8.924608 87.195230 5.325097 0.816522 -16.942784 1.837211 -0.057465 0.462065 -0.015840 -14.990674 -47.273451 14.604972 170.813977 79.262399 165.483914 -1.781244 -16.158720 2.595228 -0.736192 -2.325737 -0.314043
-57.831048 54.755383 48.956990 -177.581169 -31.068279 -10.717584 0.142998 13.422719 5.251396 0.015306 7.751454 2.064679 0.062145 9.696199 2.574370 0.017001 7.751147 2.066654 3.601600 19.401605 -1.279518 4.129441 -5.134699 -2.184128 0.722510 1.832852 -2.642391 -13.102646 -4.752738 0.879516 44.839596 -77.439554 -30.723016 9.637789 -12.489839 -22.375915 -9.383179 4.159524 -3.198141 5.007954 -2.312389 0.123451 -84.565855 -77.867138 90.165775 14.468364 -21.702437 5.446718 -18.370202 -36.079599 3.813712 8.903759 87.202251 5.303577 0.818702 -16.946579 1.836910 -0.066807 0.461062 -0.017474 -14.977864 -47.269657 14.600794 170.880369 79.276006 165.538881 -1.795680 -16.168938 2.601190 -0.728878 -2.310058 -0.304725
-57.830921 54.762917 48.958690 -177.572150 -31.069275 -10.706756 0.135879 13.429204 5.228947 0.013292 7.750070 2.065778 0.056675 9.705579 2.558348 0.012621 7.758262 2.052416 3.586944 19.356139 -1.250281 4.118450 -5.169811 -2.156491 0.719629 1.824851 -2.618478 -13.115035 -4.766262 0.888095 44.938905 -77.469060 -30.817910 9.634887 -12.486376 -22.345780 -9.387967 4.166190 -3.188034 5.077215 -2.278920 0.160795 -84.805778 -77.898160 90.385011 14.461417 -21.696648 5.425388 -18.368880 -36.085515 3.799053 8.835247 87.209851 5.235075 0.801800 -16.952902 1.841988 -0.053615 0.463904 -0.019346 -14.966380 -47.262220 14.593087 170.956062 79.291896 165.603487 -1.810978 -16.186495 2.602610 -0.714501 -2.287654 -0.296762
-57.830174 54.770487 48.959994 -177.563119 -31.072451 -10.699227 0.129256 13.436316 5.211399 0.011382 7.755787 2.058477 0.052093 9.709199 2.548314 0.012195 7.759115 2.052701 3.579574 19.331929 -1.232019 4.095801 -5.206364 -2.127769 0.691702 1.823837 -2.625232 -13.118750 -4.780439 0.915739 45.062998 -77.496176 -30.929514 9.640599 -12.496293 -22.314261 -9.438074 4.179520 -3.214439 5.178830 -2.267843 0.212569 -84.823357 -77.972786 90.412596 14.473453 -21.636831 5.400288 -18.381478 -36.088025 3.791744 8.842388 87.216548 5.234032 0.794041 -16.954992 1.841881 -0.054987 0.461205 -0.021084 -14.957756 -47.252499 14.586576 171.020291 79.306378 165.660911 -1.829597 -16.203663 2.604143 -0.698935 -2.269053 -0.295382
